<svg class="logo__image logo__image--cabinet" xmlns="http://www.w3.org/2000/svg" viewBox="0 0 779.8 335.9"><style>.st0{fill:#fff}</style><g id="Слой_1"><g id="Page-1_4_"><g id="Twitter" transform="translate(-162 -145)"><g id="Asset-1_1_" transform="translate(162 145)"><path id="Shape_14_" class="st0" d="M311.9 157.8H295v-11.4h46v11.4h-16.8v46.3h-12.3z"/><path id="Shape_13_" class="st0" d="M356.2 164.1l.9 4.5c2.4-3.6 6.5-5.7 10.8-5.5 3.7-.1 7.2 1.2 9.9 3.7l-5 9.4c-1.9-1.4-4.2-2.1-6.5-2.1-5.1 0-9.4 3.3-9.4 9.4v21.3h-11.8V164h11.1z"/><path id="Shape_12_" class="st0" d="M413.7 164h11v40h-10.6l-.6-5c-2.7 4.2-8.5 5.8-12.4 5.9-12 .1-20.7-7.7-20.7-20.9s9.2-21.1 21.1-20.9c5 0 9.8 1.9 11.9 5.5l.3-4.6zM392 184c0 6.6 4.7 10.5 10.6 10.5 2.8.1 5.5-.9 7.5-2.8s3.2-4.5 3.2-7.3c0-5.7-3.7-11-10.7-11-5.8 0-10.6 3.9-10.6 10.6z"/><path id="Shape_3_" class="st0" d="M475.7 146.4v57h-10.5l-.7-5.1c-3.7 4.8-8.3 5.9-13.3 5.9-11.8 0-19.8-8.3-19.8-20.9 0-13 8.2-20.9 20-20.9 4.7 0 9.2 1.5 12.6 5.7v-21.6h11.7zm-32.6 36.8c0 5.7 3.6 10.3 9.8 10.3 5.3 0 10.8-2.7 10.8-10.3 0-6.8-5.4-10.3-10.8-10.3-6-.1-9.8 4.3-9.8 10.3z"/><path id="Shape_4_" class="st0" d="M496.7 187.9c.6 3.9 4.3 7 10.9 7 3.2 0 7.6-.7 10.4-3.1l6.6 7.3c-4.3 4.2-11.2 5.9-17.2 5.9-14.6 0-22.5-8.5-22.5-21.2 0-12.1 8.2-20.6 21.3-20.6 13.7 0 22.6 8.5 20.1 24.8h-29.6zm19.1-8.5c-.2-4.4-4.7-6.4-9.6-6.4-4.7 0-8.3 2.4-9.4 6.4h19z"/><path id="Shape_5_" class="st0" d="M564.3 204.1c-18.3 0-31-11.4-31-30.1s12.6-30.1 31-30.1 30.9 11.4 30.9 30.1-12.5 30.1-30.9 30.1zm0-48.8c-10.9 0-18.4 8.2-18.4 18.6 0 10.7 7.5 18.5 18.4 18.5 11.1 0 18.4-7.9 18.4-18.5 0-10.4-7.3-18.6-18.4-18.6z"/><path id="Shape_6_" class="st0" d="M632.5 204.9v-21.6c0-6.3-2.8-9.5-8.5-9.5-5.6-.1-9.3 4.7-9.3 10v21.1h-11.8v-40.8h10.8l.4 5.2c3.7-4.7 8.3-6.3 13.4-6.2 9.3 0 17.2 4.3 17.2 20.2V205l-12.2-.1z"/><path id="Shape_7_" class="st0" d="M663.2 187.9c.6 3.9 4.3 7 10.9 7 3.2 0 7.6-.7 10.4-3.1l6.6 7.3c-4.3 4.2-11.2 5.9-17.2 5.9-14.6 0-22.5-8.5-22.5-21.2 0-12.1 8.2-20.6 21.3-20.6 13.7 0 22.6 8.5 20.1 24.8h-29.6zm19-8.5c-.2-4.4-4.7-6.4-9.6-6.4-4.7 0-8.3 2.4-9.4 6.4h19z"/><linearGradient id="Shape_1_" gradientUnits="userSpaceOnUse" x1="300.361" y1="3155.6035" x2="301.0895" y2="3156.1328" gradientTransform="matrix(186 0 0 -219 -55750.2539 691312.875)"><stop offset="0" stop-color="#6cb9e3"/><stop offset=".2" stop-color="#6aa0d7"/><stop offset=".49" stop-color="#8b7bb4"/><stop offset=".57" stop-color="#9777b0"/><stop offset=".86" stop-color="#c96592"/><stop offset="1" stop-color="#cf5f82"/></linearGradient><path id="Shape_9_" d="M184.6 269.3l-77.8-45.8v-91.6l77.8-45.8 77.8 45.8v91.6l-77.8 45.8zm-68.8-51.1l68.8 40.5 68.8-40.5v-81l-68.8-40.5-68.8 40.5v81z" fill="url(#Shape_1_)"/><path id="Shape_10_" class="st0" d="M198 142.2v8.6h20.9v12.9H198v56h-16.7v8.6h25.1v-56h20.9v-30.1z"/><path id="Shape_11_" class="st0" d="M189.7 210.4l-.1-68.2h-45.9v30.1h20.8v56h8.3l.1-64.6h-20.8v-12.9h29.1v59.6z"/>.</g></g></g></g></svg>